<svg width="212" height="50" viewBox="0 0 212 50" fill="none" xmlns="http://www.w3.org/2000/svg">
<path fill-rule="evenodd" clip-rule="evenodd" d="M30.6028 34.0387C31.1956 34.0387 31.1222 33.6996 31.1222 33.0696V30.012C31.1222 29.3808 31.0597 29.1788 31.4216 29.1788C32.6793 29.1788 33.0244 29.0645 33.0244 27.9415V16.5745C33.0244 13.4796 30.8373 13.9906 30.2193 12.8604C29.3452 11.331 31.8557 11.331 30.9455 8.01611C30.7147 7.26704 30.1243 6.80052 28.9917 6.80052C27.8591 6.80052 27.2675 7.26824 27.0366 8.01611C26.1253 11.3298 28.6394 11.3298 27.7617 12.8604C27.1425 13.9906 24.9602 13.4796 24.9602 16.5745V27.9403C24.9602 29.0645 25.2992 29.1776 26.5629 29.1776C26.9188 29.1776 26.8599 29.3796 26.8599 30.0108V33.0684C26.8599 33.6972 26.7854 34.0375 27.3817 34.0375L30.6028 34.0387V34.0387ZM20.6521 9.37838C19.5363 10.5675 17.7677 13.3437 18.9195 15.6523C21.2653 16.554 21.0874 8.22291 24.0043 8.36719C25.4507 9.70301 23.5751 13.6335 22.9967 15.3649C22.2729 17.4943 21.6994 21.9646 20.3263 24.1277C19.1756 25.9312 20.0401 31.5931 19.6758 33.5409C18.7043 34.5148 16.0688 33.8283 14.953 33.6479C14.953 31.4152 14.662 29.6489 14.3025 26.0779C14.2676 25.3565 13.5077 14.3189 14.1209 12.9854C15.3834 10.208 22.2705 4.90681 23.212 3.89683C24.0404 2.99386 26.9585 0 28.0791 0C28.8702 0.542263 28.4037 1.80594 28.2222 2.30732C27.1088 5.08596 22.2729 7.82734 20.6521 9.37838V9.37838ZM37.4563 9.37838C38.536 10.5675 40.3046 13.3437 39.1865 15.6523C36.807 16.554 36.9861 8.22291 34.0668 8.36719C32.6601 9.70301 34.5321 13.6335 35.1117 15.3649C35.8319 17.4943 36.409 21.9646 37.7797 24.1277C38.9003 25.9312 38.0671 31.5931 38.3917 33.5409C39.4005 34.5148 42 33.8283 43.1506 33.6479C43.1506 31.4152 43.4055 29.6489 43.7638 26.0779C43.8372 25.3565 44.5959 14.3189 43.9814 12.9854C42.7214 10.208 35.8307 4.90681 34.8952 3.89683C34.0283 2.99386 31.1439 0 30.0257 0C29.1949 0.542263 29.7011 1.80594 29.8814 2.30732C31.0032 5.08596 35.8331 7.82734 37.4563 9.37838V9.37838ZM10.6341 5.63905C10.0185 6.21498 8.64541 6.61296 7.70396 7.87664C7.34446 7.19129 8.2823 5.53084 9.40169 4.55333C10.2337 3.86438 11.8593 2.74618 12.3294 2.63797C12.6925 3.4712 11.3928 4.73488 10.6341 5.63905Z" fill="#006CBD"/>
<path fill-rule="evenodd" clip-rule="evenodd" d="M8.71879 10.1539C7.67034 11.1314 6.55215 11.5294 5.10331 13.2993C4.6012 11.5837 4.53877 9.76936 4.92175 8.02333C5.43035 6.36167 6.25877 4.51845 7.67034 3.93892C7.38298 4.87916 6.90805 6.18131 6.79983 7.95118C6.18784 10.3727 5.82593 10.4461 5.97261 10.7695C6.11449 10.7695 6.90805 9.50463 7.88676 8.52952C9.04103 7.37285 10.4863 7.11794 11.4253 6.4338C11.2822 6.90393 10.4526 8.38403 8.71879 10.1539V10.1539Z" fill="#006CBD"/>
<path fill-rule="evenodd" clip-rule="evenodd" d="M3.62211 20.1647C2.21655 17.635 2.06866 15.7906 1.96045 13.6588C2.03379 12.1763 2.75521 8.74477 3.83853 8.23978C3.51389 11.3455 4.34592 11.6364 4.01888 14.2011C4.01888 14.3453 3.65818 17.0194 3.65818 17.1625C4.09223 17.0915 3.69425 14.7048 8.64555 11.2745C7.56102 13.1514 8.06601 13.7309 6.11579 16.2246C3.83853 18.4658 3.51389 20.6709 3.62211 20.1647V20.1647Z" fill="#006CBD"/>
<path fill-rule="evenodd" clip-rule="evenodd" d="M5.61192 22.549C4.56106 24.0676 4.74262 24.8275 4.49132 25.5489C1.99523 24.1025 -0.821888 18.3588 0.224161 15.5044C0.874636 17.6711 1.77881 18.1412 2.42928 19.9471C3.54988 22.6596 3.37073 23.4917 4.09214 24.1037C3.94425 22.6957 4.41798 21.0328 4.8869 19.804C5.57585 18.758 6.1145 17.3825 6.6231 16.9112C7.16176 18.9011 6.76618 20.5278 5.61192 22.549V22.549Z" fill="#006CBD"/>
<path fill-rule="evenodd" clip-rule="evenodd" d="M7.85178 27.463C7.85178 29.6694 7.4514 30.6433 7.27345 32.2701C2.97142 30.8621 0.730225 25.9469 0.730225 23.5265C2.03358 26.4903 3.94532 26.4531 6.44142 30.6433C6.65784 29.0562 6.00737 30.2477 5.93402 27.249C6.00737 24.1037 6.65784 23.9954 6.76605 22.0464C7.56081 22.9121 7.85178 26.3809 7.85178 27.463Z" fill="#006CBD"/>
<path fill-rule="evenodd" clip-rule="evenodd" d="M11.4266 33.7153C11.7548 35.3433 11.8991 37.2574 12.1504 38.6654C9.69278 37.7636 9.07717 38.4489 6.15184 36.6069C4.81723 35.8843 2.42935 32.8484 2.57604 30.6805C5.46409 33.8968 5.97269 33.5337 7.38305 34.7265C8.68039 35.7737 9.72644 37.3308 10.6703 37.1131C10.7388 36.245 8.53852 34.3645 8.82588 28.9455C9.40301 29.5599 10.9925 32.0175 11.4266 33.7153V33.7153Z" fill="#006CBD"/>
<path fill-rule="evenodd" clip-rule="evenodd" d="M16.3044 37.7636C17.0642 38.8469 16.8851 39.3171 18.8329 41.5571C18.3616 41.7759 15.5841 42.4949 13.7397 42.5694C12.5133 42.5694 8.17643 41.414 6.7312 38.449C9.22008 39.786 9.25975 39.4613 12.5843 40.184C14.9673 40.725 16.6675 41.4837 17.3179 41.4128C17.1737 41.0869 15.3292 40.3282 14.0668 38.7363C12.7995 37.0386 13.0905 35.1245 11.9687 33.7129C12.7286 33.4989 15.6888 36.9689 16.3044 37.7636ZM47.271 5.63908C47.8506 6.215 49.2609 6.61298 50.1627 7.87666C50.5595 7.19132 49.5856 5.53086 48.4662 4.55335C47.6726 3.8644 46.0458 2.7462 45.5384 2.63799C45.1789 3.47123 46.4775 4.7349 47.271 5.63908Z" fill="#006CBD"/>
<path fill-rule="evenodd" clip-rule="evenodd" d="M49.1877 10.1539C50.1988 11.1314 51.3194 11.5294 52.7659 13.2993C53.2686 11.5838 53.3311 9.7693 52.9474 8.02333C52.4785 6.36167 51.6116 4.51845 50.2 3.93892C50.5259 4.87916 50.9599 6.18131 51.0682 7.95118C51.6826 10.3727 52.0445 10.4461 51.9014 10.7695C51.7559 10.7695 50.9599 9.50463 49.986 8.52952C48.8642 7.37285 47.4178 7.11794 46.4451 6.4338C46.5869 6.90393 47.4551 8.38403 49.1877 10.1539V10.1539Z" fill="#006CBD"/>
<path fill-rule="evenodd" clip-rule="evenodd" d="M54.2496 20.1647C55.6924 17.635 55.8006 15.7906 55.91 13.6588C55.8367 12.1763 55.1165 8.74477 54.0692 8.23978C54.3566 11.3455 53.5269 11.6364 53.8864 14.2011C53.8864 14.3453 54.2135 17.0194 54.2135 17.1625C53.8155 17.0915 54.1774 14.7048 49.2622 11.2745C50.3107 13.1514 49.8021 13.7309 51.7559 16.2246C54.068 18.4658 54.3554 20.6709 54.2496 20.1647V20.1647Z" fill="#006CBD"/>
<path fill-rule="evenodd" clip-rule="evenodd" d="M52.297 22.549C53.3082 24.0676 53.1266 24.8275 53.3815 25.5489C55.874 24.1025 58.7271 18.3588 57.645 15.5044C57.0306 17.6711 56.0916 18.1412 55.4784 19.9471C54.3205 22.6596 54.5021 23.4917 53.8155 24.1037C53.9598 22.6957 53.4524 21.0328 52.9847 19.804C52.333 18.758 51.7559 17.3825 51.2485 16.9112C50.7423 18.9011 51.103 20.5278 52.297 22.549V22.549Z" fill="#006CBD"/>
<path fill-rule="evenodd" clip-rule="evenodd" d="M50.0186 27.463C50.0186 29.6694 50.4514 30.6433 50.6342 32.2701C54.8978 30.8621 57.175 25.9469 57.175 23.5265C55.8356 26.4903 53.9587 26.4531 51.4313 30.6433C51.2125 29.0562 51.863 30.2477 51.9363 27.249C51.863 24.1037 51.2125 23.9954 51.1031 22.0464C50.3095 22.9121 50.0186 26.3809 50.0186 27.463Z" fill="#006CBD"/>
<path fill-rule="evenodd" clip-rule="evenodd" d="M46.4428 33.7153C46.1169 35.3433 46.0099 37.2574 45.7562 38.6654C48.1766 37.7636 48.7886 38.4489 51.7175 36.6069C53.0533 35.8843 55.4761 32.8484 55.3294 30.6805C52.4401 33.8968 51.8991 33.5337 50.5248 34.7265C49.2238 35.7737 48.1417 37.3308 47.1979 37.1131C47.1281 36.245 49.3332 34.3645 49.0783 28.9455C48.4675 29.5599 46.8744 32.0175 46.4428 33.7153V33.7153Z" fill="#006CBD"/>
<path fill-rule="evenodd" clip-rule="evenodd" d="M41.5636 37.7636C40.841 38.8469 41.0213 39.317 39.0326 41.557C39.5388 41.7758 42.2874 42.4949 44.1679 42.5694C45.3582 42.5694 49.6951 41.4139 51.1367 38.4489C48.6454 39.786 48.6094 39.4613 45.2849 40.1839C42.8994 40.725 41.2377 41.4837 40.5512 41.4127C40.6955 41.0869 42.576 40.3282 43.8048 38.7363C45.0672 37.0386 44.7799 35.1244 45.9365 33.7129C45.1406 33.4989 42.1792 36.9688 41.5636 37.7636V37.7636ZM22.7744 47.9547L22.0505 47.5928C22.0505 47.5928 26.6423 41.9911 34.5202 42.4251C42.3968 42.858 41.8545 44.7012 46.0832 44.4138C46.5521 44.3777 45.7201 44.9897 45.7201 44.9897C45.7201 44.9897 41.6032 46.578 36.5089 44.8443C31.4469 43.1105 28.1561 42.062 22.7744 47.9547Z" fill="#006CBD"/>
<path fill-rule="evenodd" clip-rule="evenodd" d="M35.2404 47.9548L35.9666 47.5929C35.9666 47.5929 31.4084 41.9911 23.5318 42.4252C15.6203 42.858 16.1602 44.7012 11.9339 44.4139C11.4662 44.3778 12.2946 44.9898 12.2946 44.9898C12.2946 44.9898 16.4151 46.5781 21.5119 44.8443C26.6038 43.1105 29.8935 42.062 35.2404 47.9548ZM71.2581 40.0072H68.5083V38.3107H76.0231V40.0072H73.2745V47.4835H71.2581V40.0072V40.0072ZM76.6519 38.3107H78.4783V41.7675H78.5156C78.7205 41.4357 79.0055 41.1607 79.3443 40.9677C79.6832 40.7746 80.065 40.6697 80.455 40.6625C82.3956 40.6625 82.8837 41.753 82.8837 43.3991V47.4823H81.0585V43.7309C81.0585 42.6404 80.7387 42.0993 79.891 42.0993C78.9015 42.0993 78.4783 42.6512 78.4783 44.0026V47.4835H76.6519V38.3107V38.3107ZM85.4892 44.6062C85.5409 45.7617 86.1072 46.2895 87.1208 46.2895C87.8542 46.2895 88.4434 45.8398 88.5588 45.4274H90.1652C89.6518 46.9953 88.5588 47.6638 87.0571 47.6638C84.9638 47.6638 83.6652 46.2246 83.6652 44.1698C83.6652 42.1787 85.0419 40.6625 87.0571 40.6625C89.3187 40.6625 90.4105 42.5622 90.2818 44.605H85.4892V44.6062ZM88.4578 43.4496C88.2907 42.5262 87.8927 42.038 87.0054 42.038C85.8511 42.038 85.5157 42.9374 85.4892 43.4496H88.4578ZM101.986 44.0147C101.986 46.4939 100.519 47.7011 98.0671 47.7011C95.601 47.7011 94.1606 46.506 94.1606 44.0147V38.3107H96.1782V44.0147C96.1782 45.0162 96.4355 46.0058 98.0671 46.0058C99.5051 46.0058 99.968 45.3769 99.968 44.0147V38.3107H101.986V44.0147ZM103.332 38.3107H105.337L109.164 44.4644H109.191V38.3107H111.08V47.4835H109.063L105.246 41.3442H105.22V47.4835H103.332V38.3107V38.3107ZM117.206 39.8774H119.414C120.313 39.8774 120.804 40.2633 120.804 41.1507C120.804 42.0777 120.313 42.4624 119.414 42.4624H117.206V39.8774V39.8774ZM115.19 47.4835H117.207V43.9005H119.225C120.24 43.9005 120.61 44.3237 120.753 45.288C120.854 46.019 120.828 46.9063 121.073 47.4835H123.09C122.731 46.9689 122.745 45.8904 122.706 45.312C122.642 44.3874 122.358 43.4243 121.37 43.1682V43.1418C122.385 42.7306 122.821 41.9202 122.821 40.8441C122.821 39.4565 121.784 38.3119 120.138 38.3119H115.192V47.4835H115.19V47.4835ZM125.546 43.4496C125.57 42.9374 125.903 42.038 127.058 42.038C127.946 42.038 128.345 42.5262 128.512 43.4496H125.546ZM130.333 44.6062C130.462 42.5634 129.37 40.6637 127.109 40.6637C125.091 40.6637 123.718 42.1799 123.718 44.171C123.718 46.2258 125.014 47.665 127.109 47.665C128.614 47.665 129.703 46.9953 130.218 45.4286H128.614C128.496 45.841 127.905 46.2907 127.175 46.2907C126.16 46.2907 125.595 45.7629 125.546 44.6074H130.333V44.6062V44.6062ZM131.58 42.062H130.489V40.8429H131.58V40.327C131.58 39.1584 132.313 38.3095 133.802 38.3095C134.125 38.3095 134.46 38.348 134.768 38.3636V39.7235C134.545 39.6981 134.322 39.6856 134.098 39.6862C133.612 39.6862 133.406 39.8906 133.406 40.4449V40.8429H134.664V42.062H133.406V47.4835H131.58V42.062ZM141.46 47.4835H139.725V46.5577H139.685C139.47 46.9 139.17 47.1815 138.815 47.3751C138.459 47.5688 138.06 47.6682 137.656 47.6638C135.716 47.6638 135.229 46.5709 135.229 44.9261V40.8429H137.052V44.5918C137.052 45.6847 137.374 46.2234 138.222 46.2234C139.21 46.2234 139.634 45.6703 139.634 44.3213V40.8417H141.461V47.4835H141.46ZM145.659 45.9156C144.541 45.9156 144.181 44.8744 144.181 43.9245C144.181 42.9374 144.629 42.038 145.659 42.038C146.842 42.038 147.213 43.0011 147.213 44.0796C147.213 45.0295 146.702 45.9156 145.659 45.9156V45.9156ZM148.947 40.8441H147.215V41.7302H147.189C146.755 40.9571 146.086 40.6625 145.211 40.6625C143.347 40.6625 142.361 42.2304 142.361 43.9497C142.361 45.7749 143.206 47.2899 145.197 47.2899C145.993 47.2899 146.789 46.9556 147.188 46.2619H147.213V47.136C147.225 48.0871 146.762 48.7808 145.748 48.7808C145.107 48.7808 144.555 48.55 144.388 47.8694H142.575C142.664 49.3844 144.195 50 145.504 50C148.561 50 148.946 48.1508 148.946 47.059V40.8441H148.947ZM151.685 43.4496C151.709 42.9374 152.044 42.038 153.2 42.038C154.087 42.038 154.484 42.5262 154.651 43.4496H151.685V43.4496ZM156.476 44.6062C156.605 42.5634 155.513 40.6637 153.252 40.6637C151.236 40.6637 149.861 42.1799 149.861 44.171C149.861 46.2258 151.157 47.665 153.252 47.665C154.755 47.665 155.846 46.9953 156.358 45.4286H154.755C154.639 45.841 154.048 46.2907 153.318 46.2907C152.303 46.2907 151.735 45.7629 151.686 44.6074H156.476V44.6062V44.6062ZM158.829 43.4496C158.853 42.9374 159.186 42.038 160.342 42.038C161.229 42.038 161.628 42.5262 161.793 43.4496H158.829ZM163.617 44.6062C163.746 42.5634 162.654 40.6637 160.392 40.6637C158.375 40.6637 157.002 42.1799 157.002 44.171C157.002 46.2258 158.298 47.665 160.392 47.665C161.898 47.665 162.989 46.9953 163.502 45.4286H161.898C161.78 45.841 161.188 46.2907 160.459 46.2907C159.441 46.2907 158.879 45.7629 158.829 44.6074H163.617V44.6062V44.6062ZM170.991 40.5711H171.016L172.174 43.9377H169.797L170.991 40.5711V40.5711ZM166.508 47.4835H168.55L169.269 45.4431H172.701L173.393 47.4835H175.488L172.056 38.3107H169.99L166.508 47.4835V47.4835ZM178.905 45.9156C177.787 45.9156 177.427 44.8744 177.427 43.9245C177.427 42.9374 177.876 42.038 178.905 42.038C180.086 42.038 180.46 43.0011 180.46 44.0796C180.46 45.0295 179.945 45.9156 178.905 45.9156V45.9156ZM182.192 40.8441H180.46V41.7302H180.434C179.998 40.9571 179.328 40.6625 178.457 40.6625C176.592 40.6625 175.603 42.2304 175.603 43.9497C175.603 45.7749 176.451 47.2899 178.442 47.2899C179.236 47.2899 180.036 46.9556 180.433 46.2619H180.459V47.136C180.471 48.0871 180.008 48.7808 178.993 48.7808C178.352 48.7808 177.798 48.55 177.631 47.8694H175.817C175.909 49.3844 177.438 50 178.75 50C181.805 50 182.19 48.1508 182.19 47.059V40.8441H182.192V40.8441ZM184.929 43.4496C184.954 42.9374 185.288 42.038 186.446 42.038C187.331 42.038 187.73 42.5262 187.895 43.4496H184.929ZM189.721 44.6062C189.848 42.5634 188.756 40.6637 186.497 40.6637C184.477 40.6637 183.106 42.1799 183.106 44.171C183.106 46.2258 184.402 47.665 186.497 47.665C188 47.665 189.091 46.9953 189.604 45.4286H188C187.884 45.841 187.29 46.2907 186.56 46.2907C185.546 46.2907 184.981 45.7629 184.929 44.6074H189.721V44.6062ZM190.517 40.8441H192.25V41.7687H192.287C192.75 41.022 193.549 40.6637 194.318 40.6637C196.255 40.6637 196.747 41.7542 196.747 43.4003V47.4835H194.922V43.7321C194.922 42.6416 194.599 42.1005 193.752 42.1005C192.763 42.1005 192.338 42.6524 192.338 44.0039V47.4847H190.515V40.8441H190.517V40.8441ZM202.371 43.1802C202.258 42.4348 201.782 42.038 201.026 42.038C199.856 42.038 199.469 43.2187 199.469 44.195C199.469 45.1473 199.843 46.2895 200.986 46.2895C201.834 46.2895 202.32 45.7509 202.438 44.9405H204.197C203.967 46.6995 202.745 47.665 200.998 47.665C198.995 47.665 197.645 46.2511 197.645 44.26C197.645 42.1907 198.88 40.6637 201.036 40.6637C202.605 40.6637 204.044 41.4861 204.157 43.1814H202.371V43.1802ZM208.271 48.3179C207.87 49.3844 207.243 49.8196 205.982 49.8196C205.611 49.8196 205.238 49.7956 204.866 49.7571V48.253C205.214 48.2782 205.571 48.3299 205.933 48.3179C206.559 48.253 206.766 47.5965 206.559 47.0723L204.223 40.8429H206.177L207.68 45.3902H207.705L209.154 40.8429H211.044L208.271 48.3179V48.3179ZM93.3226 23.4411C93.3226 30.9715 89.2526 34.5858 80.9599 34.5858C72.6661 34.5858 68.5576 30.9715 68.5576 23.4411V6.78129H76.9248V21.5763C76.9248 24.3525 76.9248 27.8141 80.9972 27.8141C84.953 27.8141 84.953 24.3525 84.953 21.5763V6.78129H93.3214V23.4411H93.3226V23.4411ZM98.3412 6.78129H106.9L114.811 21.3094H114.887V6.78129H122.798V33.9377H114.661L106.328 19.1042H106.254V33.9377H98.3412V6.78129V6.78129ZM127.934 6.78129H136.301V16.2138H144.14V6.78129H152.507V33.9377H144.14V23.1742H136.301V33.9377H127.934V6.78129V6.78129ZM173.921 16.8991C173.769 15.9084 173.008 12.9049 169.546 12.9049C165.626 12.9049 164.37 16.7067 164.37 20.3595C164.37 24.0111 165.626 27.8153 169.546 27.8153C172.359 27.8153 173.463 25.8374 173.959 23.2884H182.173C182.173 28.7652 177.723 34.5858 169.774 34.5858C160.989 34.5858 156.004 28.3852 156.004 20.3595C156.004 11.8011 161.407 6.13441 169.774 6.13441C177.228 6.17049 181.34 10.089 182.061 16.8979H173.921V16.8991V16.8991ZM194.04 13.244H197.96C201.153 13.244 202.105 14.2335 202.105 15.9481C202.105 18.3804 199.975 18.6486 198.418 18.6486H194.04V13.244ZM185.673 33.9377H194.04V24.468H198.493C201.802 24.468 202.026 27.1697 202.26 29.7583C202.373 31.1651 202.523 32.5718 202.943 33.9389H211.312C210.549 32.6849 210.514 29.4517 210.396 28.1219C210.093 24.7349 208.686 22.2244 206.402 21.3502C209.18 20.3222 210.474 17.356 210.474 14.5413C210.474 9.40363 206.364 6.78249 201.612 6.78249H185.673V33.9377V33.9377Z" fill="#006CBD"/>
</svg>
