<svg width="58" height="64" viewBox="0 0 58 64" fill="none" xmlns="http://www.w3.org/2000/svg">
<path d="M58 45V3C58 1.3375 56.6147 0 54.8929 0H12.4286C5.56696 0 0 5.375 0 12V52C0 58.625 5.56696 64 12.4286 64H54.8929C56.6147 64 58 62.6625 58 61V59C58 58.0625 57.5469 57.2125 56.8478 56.6625C56.304 54.7375 56.304 49.25 56.8478 47.325C57.5469 46.7875 58 45.9375 58 45ZM16.5714 16.75C16.5714 16.3375 16.921 16 17.3482 16H44.7946C45.2219 16 45.5714 16.3375 45.5714 16.75V19.25C45.5714 19.6625 45.2219 20 44.7946 20H17.3482C16.921 20 16.5714 19.6625 16.5714 19.25V16.75ZM16.5714 24.75C16.5714 24.3375 16.921 24 17.3482 24H44.7946C45.2219 24 45.5714 24.3375 45.5714 24.75V27.25C45.5714 27.6625 45.2219 28 44.7946 28H17.3482C16.921 28 16.5714 27.6625 16.5714 27.25V24.75ZM49.3777 56H12.4286C10.1371 56 8.28571 54.2125 8.28571 52C8.28571 49.8 10.15 48 12.4286 48H49.3777C49.1317 50.1375 49.1317 53.8625 49.3777 56Z" fill="#006CBD"/>
</svg>
