<svg width="133" height="50" viewBox="0 0 133 50" fill="none" xmlns="http://www.w3.org/2000/svg">
<g clip-path="url(#clip0_129_87)">
<path d="M55.5423 0.429855H50.9016V32.8819H55.5423V0.429855Z" fill="#006CBD"/>
<path d="M79.2238 28.9803C72.4516 28.9803 66.6738 24.126 66.6738 16.7508C66.6738 11.3272 70.3201 4.37987 79.3664 4.37987C87.7961 4.37987 91.8683 11.184 91.8683 16.561C91.8683 19.3686 90.6849 22.8888 88.6479 25.1252C86.422 27.5513 82.6812 28.9803 79.2238 28.9803ZM96.6053 16.6075C96.6053 7.90002 89.9276 0.00193787 79.1776 0.00193787C68.1424 0.00193787 61.8905 8.13818 61.8905 16.7508C61.8905 25.7912 68.8053 33.3098 78.9405 33.3098C89.5016 33.3098 96.6053 25.9345 96.6053 16.6075Z" fill="#006CBD"/>
<path d="M128.622 0.429855L117.92 13.7534L107.168 0.429855H102.811V32.8819H107.454V7.61539L117.494 20.176H118.346L128.292 7.61539V32.8819H132.933V0.429855H128.622Z" fill="#006CBD"/>
<path d="M9.13886 45.1773C9.13886 46.2403 9.0425 46.8115 8.83244 47.1929C8.54335 47.7157 7.77054 48.62 5.99944 48.62C4.72748 48.62 4.00285 48.1921 3.53454 47.7157C2.97179 47.16 2.84267 46.6062 2.84267 45.1773V39.0393H1.26428V45.1773C1.26428 45.9072 1.26428 47.16 1.87714 48.1127C2.74631 49.4758 4.45382 50.0005 5.99944 50.0005C7.25405 50.0005 8.47783 49.683 9.46071 48.8252C10.6999 47.7312 10.6999 46.2248 10.6999 45.1773V39.0393H9.13886V45.1773Z" fill="#006CBD"/>
<path d="M23.5505 47.4311L16.1443 39.0393H14.8723V49.8573H16.3543V41.5293L23.697 49.8573H25.0499V39.0393H23.5505V47.4311Z" fill="#006CBD"/>
<path d="M40.2017 43.4811L36.5477 39.0393H35.0657V49.8573H36.6441V41.4344L40.0571 45.6226H40.3482L43.7285 41.4344V49.8573H45.3069V39.0393H43.8422L40.2017 43.4811Z" fill="#006CBD"/>
<path d="M49.6874 49.8573H51.2658V39.0393H49.6874V49.8573Z" fill="#006CBD"/>
<path d="M61.0251 45.9073H63.1335V48.1591C62.087 48.4922 61.5397 48.6355 60.7341 48.6355C58.0765 48.6355 56.3227 46.8444 56.3227 44.4492C56.3227 41.8953 58.4003 40.2765 60.5896 40.2765C61.2005 40.2765 62.6825 40.3714 64.4864 41.4035V39.8177C63.3108 39.3258 62.168 38.8979 60.6223 38.8979C56.8527 38.8979 54.6788 41.6881 54.6788 44.5441C54.6788 47.0012 56.4345 50.0005 60.6859 50.0005C62.5226 50.0005 63.8736 49.4758 64.7119 49.1118V44.5441H61.0251V45.9073Z" fill="#006CBD"/>
<path d="M72.6193 43.6089C72.1837 43.7657 71.33 43.7657 71.0891 43.7657H70.4762V40.3559H70.9599C71.91 40.3559 72.4246 40.4198 72.8274 40.6096C73.3439 40.8477 73.6657 41.4344 73.6657 42.054C73.6657 42.6407 73.3593 43.3223 72.6193 43.6089ZM73.4402 44.7184C74.6313 44.2575 75.275 43.3068 75.275 42.054C75.275 40.96 74.7276 39.8815 73.552 39.3897C72.8602 39.0877 72.1837 39.0393 71.6691 39.0393H68.9152V49.8573H70.4762V45.1463H70.8963C71.6518 45.1463 72.1837 45.1463 73.2629 46.5114C73.6176 46.9703 75.1458 49.3345 75.5178 49.8573H77.3852C76.6279 48.8097 76.3542 48.4457 75.8878 47.7002C75.0495 46.3681 74.4385 45.369 73.4402 44.7184Z" fill="#006CBD"/>
<path d="M82.6986 45.2741L84.3425 41.355L86.1136 45.2741H82.6986ZM83.8106 38.9773L79.0928 49.8572H80.702L82.0877 46.6682H86.7573L88.222 49.8572H89.8331L84.9207 38.9773H83.8106Z" fill="#006CBD"/>
<path d="M90.4171 40.4043H94.1867V49.8573H95.7632V40.4043H99.5964V39.0393H90.4171V40.4043Z" fill="#006CBD"/>
<path d="M103.058 49.8573H104.636V39.0393H103.058V49.8573Z" fill="#006CBD"/>
<path d="M117.005 47.2723C116.247 48.0817 114.975 48.5561 113.8 48.5561C111.497 48.5561 109.533 46.9393 109.533 44.4802C109.533 42.6717 110.772 40.3559 113.848 40.3559C116.714 40.3559 118.1 42.6253 118.1 44.4163C118.1 45.3535 117.697 46.5269 117.005 47.2723ZM113.783 38.8979C110.032 38.8979 107.906 41.6087 107.906 44.4802C107.906 47.4931 110.258 50.0005 113.704 50.0005C117.294 50.0005 119.709 47.5415 119.709 44.4318C119.709 41.5293 117.438 38.8979 113.783 38.8979Z" fill="#006CBD"/>
<path d="M131.417 47.4311L124.01 39.0393H122.738V49.8573H124.218V41.5293L131.561 49.8573H132.914V39.0393H131.417V47.4311Z" fill="#006CBD"/>
<path d="M17.875 13.5946C18.2373 13.5946 18.5302 13.3003 18.5302 12.9344C18.5302 12.5703 18.2373 12.276 17.875 12.276C17.5107 12.276 17.2178 12.5703 17.2178 12.9344C17.2178 13.3003 17.5107 13.5946 17.875 13.5946Z" fill="#006CBD"/>
<path d="M15.3831 17.5601C15.4313 17.5892 15.4814 17.6027 15.5335 17.6027C15.6433 17.6027 15.7474 17.5369 15.7936 17.4285L16.9654 14.6538L17.0502 17.3549L16.6108 20.7763C16.5954 20.9099 16.6667 21.0435 16.7919 21.09C16.8247 21.1035 16.8594 21.1074 16.8902 21.1074C17.0309 21.1074 17.1542 21.0028 17.1697 20.8576L17.5898 17.6027H18.1583L18.5785 20.8576C18.5958 21.0028 18.7172 21.1074 18.8579 21.1074C18.8907 21.1074 18.9234 21.1035 18.9562 21.09C19.0815 21.0435 19.1528 20.9099 19.1373 20.7763L18.6979 17.3549L18.7847 14.6538L19.9545 17.4285L19.9564 17.4304C19.9622 17.4459 19.9699 17.4594 19.9795 17.473C19.9815 17.4769 19.9853 17.4807 19.9872 17.4846C19.995 17.4943 20.0027 17.504 20.0104 17.5137C20.0142 17.5156 20.0181 17.5195 20.02 17.5233C20.0316 17.533 20.0412 17.5408 20.0528 17.5485C20.0547 17.5504 20.0566 17.5524 20.0586 17.5543C20.072 17.564 20.0875 17.5717 20.1009 17.5775C20.1067 17.5795 20.1106 17.5814 20.1144 17.5834C20.126 17.5872 20.1376 17.5911 20.1511 17.593C20.1549 17.595 20.1607 17.5969 20.1645 17.5969C20.1819 17.6008 20.1992 17.6027 20.2166 17.6027H20.4517L20.074 19.5293C20.047 19.6668 20.0817 19.8062 20.1703 19.9146C20.2243 19.9824 20.2956 20.0308 20.3746 20.0599V20.875C20.3746 21.0048 20.4806 21.1113 20.6097 21.1113C20.7408 21.1113 20.8449 21.0048 20.8449 20.875V20.087H20.8468C20.8564 20.087 20.8641 20.087 20.8718 20.087H21.1783C21.186 20.087 21.1937 20.087 21.2033 20.087V20.875C21.2033 21.0048 21.3093 21.1113 21.4404 21.1113C21.5695 21.1113 21.6755 21.0048 21.6755 20.875V20.0579C21.7545 20.0308 21.8239 19.9805 21.8798 19.9146C21.9684 19.8062 22.0031 19.6649 21.9761 19.5274L21.5984 17.6027H21.8335C21.8509 17.6027 21.8682 17.6008 21.8855 17.5969C21.8894 17.5969 21.8952 17.595 21.899 17.593C21.9106 17.5911 21.9222 17.5872 21.9357 17.5834C21.9395 17.5814 21.9434 17.5795 21.9472 17.5775C21.9626 17.5717 21.9761 17.564 21.9896 17.5543C21.9935 17.5524 21.9954 17.5504 21.9973 17.5485C22.0089 17.5408 22.0185 17.533 22.0282 17.5233C22.032 17.5195 22.0359 17.5156 22.0397 17.5137C22.0474 17.504 22.0551 17.4943 22.0628 17.4846C22.0648 17.4807 22.0686 17.4769 22.0706 17.473C22.0783 17.4594 22.0879 17.4459 22.0937 17.4304C22.0937 17.4304 22.0937 17.4285 22.0956 17.4285L23.3078 14.5531L23.5487 15.7226C23.5873 15.9123 23.5815 16.1118 23.5295 16.3093L22.4213 21.1074H25.8729L24.7629 16.3015C24.7128 16.1118 24.707 15.9123 24.7475 15.7226L24.9884 14.5434L25.925 16.8592C25.9712 16.9696 26.0772 17.0354 26.1871 17.0354C26.2237 17.0354 26.2603 17.0296 26.295 17.0141C26.4395 16.956 26.5089 16.7895 26.4492 16.6443L25.4008 14.0555C25.3584 13.949 25.2543 13.8773 25.1387 13.8773H23.1671C23.0534 13.8773 22.9513 13.947 22.905 14.0516L21.6466 17.0335H20.4035L19.1431 14.0516C19.0988 13.947 18.9967 13.8773 18.883 13.8773H16.8652C16.7515 13.8773 16.6493 13.947 16.605 14.0516L15.2771 17.1961C15.2213 17.3278 15.2617 17.4846 15.3831 17.5601Z" fill="#006CBD"/>
<path d="M24.1461 13.5966C24.5084 13.5966 24.8013 13.3022 24.8013 12.9382C24.8013 12.5742 24.5084 12.278 24.1461 12.278C23.7838 12.278 23.4889 12.5742 23.4889 12.9382C23.4889 13.3022 23.7838 13.5966 24.1461 13.5966Z" fill="#006CBD"/>
<path d="M21.024 16.8902C21.2977 16.8902 21.5174 16.6675 21.5174 16.3945C21.5174 16.1215 21.2977 15.9007 21.024 15.9007C20.7523 15.9007 20.5326 16.1215 20.5326 16.3945C20.5326 16.6675 20.7523 16.8902 21.024 16.8902Z" fill="#006CBD"/>
<path d="M24.0151 25.7293C22.8298 25.7951 21.7005 26.0604 20.6636 26.4941C19.1315 25.8164 17.6957 24.6546 16.603 23.1986H24.0151V25.7293ZM24.0151 30.6126C21.978 30.51 20.0546 29.9368 18.3394 28.9939C19.8234 27.6075 21.8123 26.711 24.0151 26.5774V30.6126ZM12.6561 23.1986H15.5218C16.5972 24.8192 18.0484 26.1553 19.6056 27.0092C18.8578 27.4313 18.1718 27.9463 17.5685 28.535C15.5334 27.2357 13.8375 25.3943 12.6561 23.1986ZM10.8965 17.3781H13.691C13.691 17.4052 13.691 17.4285 13.691 17.4478C13.691 19.1246 14.1535 20.7434 14.9206 22.1898H12.1608C11.4978 20.7066 11.0603 19.0859 10.8965 17.3781ZM7.12306 16.3693C7.11921 16.2415 7.11535 16.0479 7.11535 15.9375C7.11535 14.2452 7.62606 12.6187 8.4644 11.1956H25.7977C26.6361 12.6187 27.1468 14.2452 27.1468 15.9375C27.1468 15.9588 27.1468 15.9821 27.1468 16.0092H27.1371L27.1217 17.016H34.5993C34.6031 17.1438 34.607 17.3394 34.607 17.4478C34.607 19.1401 34.0963 20.7685 33.258 22.1898H15.9323C15.0959 20.7685 14.5852 19.1401 14.5852 17.4478C14.5852 17.4285 14.5852 17.4033 14.5852 17.3781L14.6026 16.3693H7.12306ZM3.22239 16.3693C3.35922 14.5298 3.81019 12.7853 4.51747 11.1956H7.46032C6.69329 12.6439 6.23076 14.2626 6.23076 15.9375C6.23076 16.0188 6.23269 16.2299 6.23462 16.3693H3.22239ZM10.037 4.78067C10.6576 5.40028 11.3668 5.93663 12.1454 6.37617C10.5863 7.23007 9.13507 8.5661 8.05968 10.1868H5.01276C6.21727 7.9523 7.95369 6.08379 10.037 4.78067ZM16.6974 7.66379V10.1868H9.13892C10.2316 8.73262 11.6713 7.57085 13.2015 6.89315C14.2807 7.34237 15.4582 7.61151 16.6974 7.66379ZM16.6974 2.76113V6.8157C14.4041 6.71114 12.3362 5.78173 10.8137 4.32952C12.5906 3.37493 14.5852 2.81535 16.6974 2.76113ZM17.7092 7.65798C18.8945 7.59215 20.0257 7.32494 21.0606 6.89315C22.5928 7.57085 24.0305 8.73262 25.1251 10.1868H17.7092V7.65798ZM17.7092 2.77275C19.7482 2.87537 21.6696 3.45045 23.3849 4.39342C21.9009 5.77786 19.914 6.67435 17.7092 6.80796V2.77275ZM29.0682 10.1868H26.2024C25.1271 8.56804 23.6759 7.23007 22.1187 6.37617C22.8684 5.95406 23.5525 5.44094 24.1577 4.85038C26.1909 6.15156 27.8868 7.99296 29.0682 10.1868ZM30.8277 16.0092H28.0294C28.0294 15.9821 28.0294 15.9569 28.0294 15.9375C28.0294 14.2626 27.5669 12.6439 26.8018 11.1956H29.5654C30.2265 12.6807 30.6639 14.3014 30.8277 16.0092ZM38.5 17.016C38.3651 18.8574 37.9141 20.602 37.2049 22.1898H34.262C35.0291 20.7434 35.4935 19.1246 35.4935 17.4478C35.4935 17.3665 35.4916 17.1554 35.4877 17.016H38.5ZM31.6854 28.6066C31.0648 27.987 30.3556 27.4487 29.577 27.0111C31.1342 26.1553 32.5854 24.8192 33.6627 23.1986H36.7096C35.507 25.435 33.7687 27.3015 31.6854 28.6066ZM25.0268 25.7235V23.1986H32.5854C31.4907 24.6546 30.0511 25.8164 28.5189 26.4941C27.4416 26.0449 26.2641 25.7738 25.0268 25.7235ZM25.0268 30.6261V26.5677C27.3221 26.6742 29.3862 27.6055 30.9087 29.0577C29.1337 30.0104 27.1391 30.57 25.0268 30.6261ZM40.7914 15.7071C40.7914 10.5547 38.4383 4.78842 34.6109 0.491814H31.1997C32.092 1.31667 33.335 2.75532 33.335 2.75532C36.6267 6.45168 38.5424 11.4124 38.5424 15.8446C38.5424 15.9007 38.5424 15.9549 38.5404 16.0092H33.0826C32.2539 7.34624 25.3872 0.491814 17.0463 0.491814C8.14641 0.491814 0.932861 8.18659 0.932861 17.6782C0.932861 22.8326 3.28406 28.5989 7.10957 32.8955H10.5227C9.63229 32.0687 8.38731 30.63 8.38731 30.63C5.09563 26.9356 3.17999 21.9729 3.17999 17.5408C3.17999 17.4865 3.18192 17.4323 3.18192 17.3781H8.63977C9.4704 26.041 16.3371 32.8955 24.6761 32.8955C33.5759 32.8955 40.7914 25.2007 40.7914 15.7071Z" fill="#006CBD"/>
</g>
<defs>
<clipPath id="clip0_129_87">
<rect width="132" height="50" fill="white" transform="translate(0.932861)"/>
</clipPath>
</defs>
</svg>
