<svg width="176" height="50" viewBox="0 0 176 50" fill="none" xmlns="http://www.w3.org/2000/svg">
<path d="M28.7178 0.0803714C26.7838 0.347126 22.349 1.61421 19.4481 2.74791C14.7132 4.54851 7.84426 9.28339 5.41012 12.4178C3.77625 14.4851 1.1754 19.5868 0.575202 21.8542C-0.058339 24.2216 0.508514 29.5567 1.67556 32.3243C1.97566 33.0245 2.20907 33.8915 2.20907 34.2249C2.20907 34.5584 2.40914 34.9585 2.67589 35.0919C3.24274 35.392 4.70989 37.3593 5.17671 38.393C5.81025 39.8268 13.3127 45.5286 14.5465 45.5286C14.8466 45.5286 15.2467 45.6954 15.4134 45.8621C15.8802 46.3289 23.5161 48.8631 24.4164 48.8631C24.8165 48.8631 26.1169 49.0965 27.284 49.3966C28.7178 49.7967 30.9185 49.9634 34.3863 49.9968C42.0888 50.0635 44.723 49.1298 50.7917 44.3616C53.0924 42.561 53.6593 41.594 51.8587 42.5276C51.3919 42.7944 51.0584 42.8277 50.825 42.5943C50.5916 42.3609 50.1915 42.3609 49.658 42.561C49.1912 42.7277 48.6243 42.7277 48.3242 42.5943C47.8907 42.3276 47.8907 42.2275 48.3909 41.7607C48.8911 41.2606 48.8577 41.1939 48.0575 40.9938C47.3906 40.8271 47.2572 40.627 47.4239 40.1269C47.5573 39.66 47.4906 39.5267 47.2572 39.66C47.0571 39.7934 46.8904 39.7601 46.8904 39.56C46.8904 39.3933 46.4569 39.46 45.9234 39.7267C44.5897 40.3936 35.4867 41.1939 33.3193 40.8604C30.485 40.3936 30.1182 40.0602 30.385 38.3263C30.7518 35.7254 31.3853 34.3916 32.419 33.8581C33.5194 33.2913 37.5874 33.1912 40.7551 33.6581C43.0892 33.9915 43.8894 33.5247 43.8894 31.8241C43.8894 30.7238 43.8894 30.7238 39.5547 30.1903C34.5197 29.5234 34.353 29.39 36.7204 27.4227C38.4877 25.9222 39.1879 24.7218 39.5547 22.421C40.0215 19.3867 38.7877 19.1866 37.0205 22.0209C36.1869 23.288 34.453 24.5551 34.0862 24.1549C34.0195 24.0883 33.8528 23.288 33.6861 22.3877C33.4527 21.2206 33.1192 20.5871 32.4857 20.0869C31.2519 19.1533 28.7178 19.0199 27.2173 19.7868C26.1169 20.3537 26.0502 20.4537 26.1503 21.8542C26.217 22.6878 26.4837 23.8548 26.7505 24.4884C27.0172 25.0886 27.2173 25.7221 27.2173 25.8888C27.2173 26.489 25.6168 26.1556 23.2493 25.0219C20.5818 23.7548 19.8149 23.6214 19.248 24.3217C18.9146 24.7218 18.9812 25.0219 19.4481 25.7555C20.315 27.0892 21.1486 27.7895 23.0826 28.6564C24.6831 29.39 24.8165 29.5567 25.2166 31.1572C25.6168 32.8911 25.5167 37.7594 25.0499 38.5263C24.3163 39.7267 18.0476 37.2259 14.9132 34.4917C12.6458 32.491 12.0456 31.6908 10.8786 29.3567C10.145 27.8228 9.97829 24.5217 10.5785 22.5211C11.112 20.7872 13.0126 18.5198 15.5134 16.6191C18.7145 14.2183 19.5481 13.7182 21.382 13.0513C22.3157 12.6845 23.216 12.3177 23.3827 12.151C23.5828 12.0176 24.8832 11.5841 26.2836 11.2174C27.6841 10.8506 29.1179 10.4171 29.4847 10.217C31.4187 9.18336 32.7524 8.9833 36.387 9.25005C39.0212 9.41677 40.7217 9.71687 42.3556 10.3504C46.5903 11.8842 51.3585 15.3854 53.4926 18.4531C54.5929 19.9869 55.5599 23.0212 55.5599 24.7551C55.5599 26.7558 54.0928 30.3236 52.4589 32.2909C51.0251 34.0249 50.9584 34.5917 52.3255 33.5247C53.2258 32.7911 53.726 32.6577 53.3925 33.1912C53.0591 33.7248 53.9594 33.558 54.6263 32.9912C55.1598 32.4577 55.2265 32.491 55.4265 32.9912C55.5933 33.3913 55.76 33.458 56.0601 33.1912C56.727 32.6244 56.9937 33.7914 56.4269 34.8918C55.8267 36.1255 55.9934 36.1255 57.2605 34.8251C58.3942 33.6914 58.8277 33.7248 58.2275 34.9251C57.894 35.5587 57.894 35.6254 58.2608 35.2586C58.8944 34.6584 59.7613 34.7251 59.2611 35.3253C58.961 35.6921 58.9944 35.8254 59.3945 35.9922C59.6946 36.0922 59.828 36.3256 59.728 36.5257C59.6279 36.6924 59.728 36.7591 59.9947 36.6591C60.7283 36.3923 62.8623 32.5577 63.5625 30.2236C64.4628 27.4227 64.6963 24.0883 64.1961 22.0209C63.996 21.0873 63.796 19.6201 63.7626 18.7198C63.7293 17.6195 63.5292 16.9859 63.1291 16.6858C62.829 16.4524 62.5622 15.9523 62.5622 15.5521C62.5622 14.5518 56.5936 8.61651 53.726 6.74923C51.0251 5.04867 47.3572 3.18139 46.6903 3.18139C46.4236 3.18139 45.8567 2.98132 45.4566 2.71457C45.0565 2.48116 43.5226 2.08103 42.0555 1.84762C40.5883 1.64755 38.5543 1.18073 37.554 0.84729C35.7201 0.247093 30.5851 -0.186383 28.7178 0.0803714Z" fill="#006CBD"/>
<path d="M100.675 7.31609L99.7411 8.11635L99.641 20.6871L99.541 33.2246L108.711 33.1246C117.547 33.0245 117.914 32.9912 118.581 32.3243C119.448 31.4907 119.781 29.39 119.281 28.0896C118.681 26.5891 117.213 26.189 112.112 26.189H107.61L107.51 17.1526L107.41 8.11635L106.477 7.31609C105.143 6.14904 102.008 6.14904 100.675 7.31609Z" fill="#006CBD"/>
<path d="M131.351 6.88261C130.718 7.04933 130.051 7.58284 129.784 8.11635C129.551 8.61651 127.283 14.3517 124.749 20.8539C122.249 27.356 120.114 32.8245 120.014 32.9578C119.948 33.0912 121.682 33.1579 123.916 33.1246L127.984 33.0245L129.051 30.357L130.118 27.6894L134.219 27.5894C136.753 27.5227 138.487 27.6228 138.754 27.8562C138.987 28.0562 139.588 29.3233 140.121 30.6904L141.088 33.1913H145.189C148.991 33.1913 149.324 33.1246 149.191 32.5911C148.557 30.257 139.354 8.18304 138.721 7.5495C138.054 6.81592 137.62 6.71589 135.186 6.6492C133.652 6.58251 131.918 6.68255 131.351 6.88261ZM135.92 17.6862C136.653 19.6535 137.253 21.4207 137.253 21.5541C137.253 21.7208 135.986 21.8542 134.419 21.8542C132.852 21.8542 131.585 21.7542 131.585 21.6541C131.585 21.2207 134.352 13.8516 134.453 13.9516C134.519 14.0183 135.186 15.6855 135.92 17.6862Z" fill="#006CBD"/>
<path d="M152.025 7.31608L151.091 8.11634L150.991 20.6538L150.891 33.1912H154.592H158.26V26.1889C158.26 22.321 158.394 19.1866 158.56 19.1866C158.727 19.1866 161.061 22.0543 163.762 25.5554C166.463 29.0565 168.964 32.1909 169.331 32.5244C170.231 33.358 172.298 33.6581 173.765 33.1912C175.899 32.491 175.933 32.2909 175.933 18.8532V6.84926H172.265H168.597V13.8516C168.597 17.6862 168.497 20.8539 168.364 20.8539C168.197 20.8539 165.863 17.8862 163.095 14.3184C160.361 10.7172 157.76 7.4828 157.293 7.14936C156.093 6.18237 153.225 6.28241 152.025 7.31608Z" fill="#006CBD"/>
<path d="M75.8665 7.34943C75.3664 7.61619 74.7995 8.31642 74.5995 8.88327C74.366 9.5835 74.2327 13.9516 74.2327 21.5541V33.1913H78.234H82.2019L82.302 29.4233L82.402 25.6888L86.4367 25.4887C89.9378 25.322 90.7381 25.1886 92.372 24.3884C95.5397 22.8212 96.8734 20.4204 96.8734 16.1857C96.9068 12.0843 95.2729 9.41678 91.7384 7.78291C90.2046 7.08268 89.5377 7.01599 83.4023 6.9493C78.0006 6.84927 76.5668 6.9493 75.8665 7.34943ZM86.6034 12.8512C88.1706 13.2847 88.9041 14.1517 89.1376 15.7855C89.371 17.4194 88.6041 18.9532 87.3036 19.4868C86.7701 19.7202 85.3697 19.8535 84.2026 19.7869L82.0686 19.6868L81.9685 16.5525C81.9352 14.8186 81.9352 13.218 82.0352 12.9513C82.2353 12.4178 84.8361 12.3511 86.6034 12.8512Z" fill="#006CBD"/>
<path d="M37.2539 11.0506C37.2539 11.4174 37.3539 11.5175 37.4539 11.2507C37.5539 11.0173 37.5206 10.7172 37.4206 10.6172C37.3205 10.4838 37.2205 10.6838 37.2539 11.0506Z" fill="#006CBD"/>
<path d="M34.2196 12.151C34.2196 12.3511 34.3863 12.5845 34.553 12.6845C34.7531 12.7845 34.8865 12.6512 34.8865 12.3844C34.8865 12.0843 34.7531 11.8509 34.553 11.8509C34.3863 11.8509 34.2196 11.9843 34.2196 12.151Z" fill="#006CBD"/>
<path d="M39.5547 12.5178C39.1546 12.7845 39.1879 12.8512 39.8215 12.8512C40.2216 12.8512 40.555 12.6845 40.555 12.5178C40.555 12.0843 40.1883 12.0843 39.5547 12.5178Z" fill="#006CBD"/>
<path d="M35.42 13.3514C34.3196 14.3517 34.1862 16.319 35.1866 16.8526C36.2536 17.4194 37.3873 17.2193 38.3543 16.3524C39.4213 15.3854 39.488 14.1183 38.4876 13.1847C37.5207 12.2844 36.5203 12.3511 35.42 13.3514ZM37.7207 13.8516C38.0875 14.4184 37.5207 15.5521 36.7871 15.8189C35.2533 16.3857 34.6864 15.3854 35.8868 14.185C36.6204 13.4514 37.3873 13.3181 37.7207 13.8516Z" fill="#006CBD"/>
<path d="M32.5524 14.185C32.5524 14.3517 32.7858 14.5184 33.0525 14.5184C33.3193 14.5184 33.5527 14.3517 33.5527 14.185C33.5527 13.9849 33.3193 13.8516 33.0525 13.8516C32.7858 13.8516 32.5524 13.9849 32.5524 14.185Z" fill="#006CBD"/>
<path d="M39.8881 15.8522C39.8881 16.0189 40.1215 16.1857 40.4216 16.1857C40.6883 16.1857 40.8217 16.0189 40.7217 15.8522C40.6216 15.6522 40.3882 15.5188 40.1882 15.5188C40.0214 15.5188 39.8881 15.6522 39.8881 15.8522Z" fill="#006CBD"/>
<path d="M32.7191 17.186C32.6191 17.3527 32.7525 17.5194 33.0192 17.5194C33.3193 17.5194 33.5527 17.3527 33.5527 17.186C33.5527 16.9859 33.4194 16.8526 33.2526 16.8526C33.0526 16.8526 32.8192 16.9859 32.7191 17.186Z" fill="#006CBD"/>
<path d="M38.2209 18.3197C38.2209 18.6198 38.3877 18.8532 38.5544 18.8532C38.7545 18.8532 38.8878 18.7198 38.8878 18.5531C38.8878 18.353 38.7545 18.1196 38.5544 18.0196C38.3877 17.9196 38.2209 18.0529 38.2209 18.3197Z" fill="#006CBD"/>
<path d="M35.5867 18.7198C35.5867 19.0866 35.6868 19.1866 35.7868 18.9199C35.8868 18.6865 35.8535 18.3864 35.7535 18.2864C35.6534 18.153 35.5534 18.353 35.5867 18.7198Z" fill="#006CBD"/>
<path d="M54.0595 34.8585C53.9594 35.0252 54.0261 35.1919 54.1928 35.1919C54.3929 35.1919 54.5596 35.0252 54.5596 34.8585C54.5596 34.6584 54.4929 34.525 54.4262 34.525C54.3262 34.525 54.1595 34.6584 54.0595 34.8585Z" fill="#006CBD"/>
<path d="M75.1331 41.3939C74.9997 41.5273 74.8997 43.2612 74.8997 45.2619V48.8631H75.9H76.9337L76.8336 45.0952C76.7336 41.6274 76.7002 41.3606 76.0667 41.2606C75.6666 41.1939 75.2664 41.2606 75.1331 41.3939Z" fill="#006CBD"/>
<path d="M79.1009 41.694C79.0009 41.9941 78.9009 43.728 78.9009 45.562V48.8631H79.9012H80.9015V46.8291C80.9015 45.7287 81.0349 44.8617 81.2016 44.9284C81.335 44.9618 82.1353 45.8621 82.9689 46.8624C84.4694 48.763 85.4363 49.2632 85.9365 48.4629C86.1032 48.2295 86.2366 46.4956 86.2366 44.595V41.1939H85.2363C84.2693 41.1939 84.2693 41.1939 84.1693 43.3946L84.0692 45.562L82.402 43.4613C80.7015 41.3273 79.5011 40.6937 79.1009 41.694Z" fill="#006CBD"/>
<path d="M87.9039 41.694C87.3037 42.3943 88.0373 43.1945 89.271 43.1945H90.238V46.0288V48.8631H91.2384H92.2387V46.0621V43.2279L93.3391 43.1278C94.2394 43.0611 94.4061 42.8944 94.4061 42.1942C94.4061 41.3606 94.3727 41.3606 91.3717 41.2606C88.9709 41.1939 88.2374 41.2606 87.9039 41.694Z" fill="#006CBD"/>
<path d="M96.6401 41.4606C96.34 41.6607 96.2399 42.661 96.3066 45.2285L96.4066 48.6963L99.3409 48.7964C102.242 48.8964 102.242 48.8964 102.242 48.0628C102.242 47.2959 102.109 47.2292 100.341 47.1292C98.8074 47.0625 98.374 46.8958 98.3073 46.4289C98.2072 45.9621 98.4406 45.8621 99.7077 45.8621C101.108 45.8621 101.242 45.7954 101.242 45.0285C101.242 44.2615 101.108 44.1949 99.7411 44.1949C98.6407 44.1949 98.2406 44.0615 98.2406 43.6947C98.2406 43.2946 98.6741 43.1945 100.241 43.1945H102.242V42.1942V41.1939H99.6744C98.2406 41.1939 96.8735 41.3272 96.6401 41.4606Z" fill="#006CBD"/>
<path d="M104.643 41.594C104.376 41.8608 104.243 43.1945 104.243 45.4286V48.8631H105.243C106.177 48.8631 106.243 48.763 106.243 47.7293C106.243 46.0621 106.677 46.0288 107.877 47.5293C108.577 48.4296 109.211 48.8631 109.744 48.8631C110.945 48.8631 111.045 48.2962 110.078 47.1625L109.211 46.1288L110.078 45.3286C111.478 44.0281 111.045 42.1942 109.211 41.5607C107.81 41.0605 105.143 41.0938 104.643 41.594ZM108.411 43.8614C108.411 44.5616 108.244 44.7284 107.344 44.7951C106.31 44.8951 106.243 44.8284 106.243 43.8614C106.243 42.8944 106.31 42.8277 107.344 42.9278C108.244 42.9945 108.411 43.1612 108.411 43.8614Z" fill="#006CBD"/>
<path d="M112.779 41.7274C112.679 42.0275 112.579 43.728 112.579 45.562V48.8631H113.579H114.579V46.8624C114.579 45.762 114.713 44.8617 114.846 44.8617C115.013 44.8617 115.78 45.762 116.58 46.8624C117.647 48.3295 118.247 48.8631 118.814 48.8631C119.581 48.8631 119.581 48.8297 119.581 45.0285V41.1939H118.747C117.947 41.1939 117.914 41.2939 117.914 43.2279C117.914 44.3282 117.78 45.1952 117.614 45.1285C117.447 45.0618 116.613 44.1615 115.78 43.0945C114.212 41.1939 113.179 40.7271 112.779 41.7274Z" fill="#006CBD"/>
<path d="M124.016 41.594C123.682 42.0275 121.248 48.1962 121.248 48.6297C121.248 48.763 121.682 48.8631 122.182 48.8631C122.882 48.8631 123.249 48.6297 123.516 48.0295C123.816 47.3626 124.149 47.1958 125.183 47.1958C126.25 47.1958 126.55 47.3626 126.85 48.0295C127.15 48.663 127.484 48.8631 128.25 48.8631C129.451 48.8631 129.484 49.0965 127.617 44.4616C126.45 41.594 126.316 41.3606 125.383 41.2606C124.816 41.1939 124.216 41.3606 124.016 41.594ZM125.783 44.7951C125.983 45.7954 125.916 45.8621 125.116 45.8621C124.116 45.8621 124.116 45.7954 124.649 44.2949C125.116 43.0611 125.483 43.1945 125.783 44.7951Z" fill="#006CBD"/>
<path d="M130.385 41.694C130.018 42.5943 130.518 43.1945 131.585 43.1945H132.585V46.0288V48.8631H133.752H134.919V46.0288C134.919 43.2612 134.953 43.1945 135.72 43.1945C136.82 43.1945 137.487 42.3609 136.92 41.694C136.62 41.3273 135.753 41.1939 133.519 41.1939C131.185 41.1939 130.518 41.2939 130.385 41.694Z" fill="#006CBD"/>
<path d="M139.154 41.3939C139.021 41.5273 138.921 43.2612 138.921 45.2619V48.8631H139.921H140.955L140.855 45.0952C140.755 41.6274 140.721 41.3606 140.088 41.2606C139.688 41.1939 139.287 41.2606 139.154 41.3939Z" fill="#006CBD"/>
<path d="M144.523 41.7607C142.255 43.1612 142.422 47.3959 144.756 48.4629C146.757 49.3632 149.457 48.663 150.191 47.0291C150.691 45.9621 150.691 44.1282 150.224 43.0945C149.424 41.3273 146.356 40.627 144.523 41.7607ZM147.957 43.5613C148.924 44.5283 148.724 46.1955 147.557 46.8291C146.757 47.2625 146.59 47.2625 145.79 46.7624C144.656 45.9954 144.556 44.1615 145.656 43.3946C146.657 42.6944 147.123 42.7277 147.957 43.5613Z" fill="#006CBD"/>
<path d="M152.825 41.4273C152.692 41.5273 152.592 43.2612 152.592 45.2619V48.8631H153.592C154.559 48.8631 154.559 48.8297 154.659 46.8291L154.759 44.7617L156.393 46.8291C157.593 48.3962 158.194 48.8631 158.727 48.7964C159.394 48.6963 159.427 48.4963 159.527 44.9284L159.627 41.1939H158.627C157.627 41.1939 157.627 41.1939 157.527 43.3613L157.427 45.562L155.793 43.3613C154.292 41.3939 153.425 40.8271 152.825 41.4273Z" fill="#006CBD"/>
<path d="M163.795 41.494C163.595 41.7941 160.928 48.5963 160.928 48.763C160.928 48.8297 161.395 48.8631 161.928 48.8631C162.695 48.8631 163.029 48.663 163.262 48.0294C163.529 47.3292 163.795 47.1958 164.929 47.1958C166.03 47.1958 166.33 47.3292 166.663 48.0294C166.963 48.663 167.297 48.8631 168.13 48.8631H169.197L167.863 45.4286C167.097 43.5613 166.33 41.8274 166.163 41.594C165.796 41.1272 164.062 41.0272 163.795 41.494ZM165.696 45.5953C165.629 45.762 165.263 45.8621 164.929 45.8621C164.029 45.8621 163.962 45.5286 164.529 44.1949L165.029 43.0278L165.429 44.1949C165.663 44.8284 165.763 45.4619 165.696 45.5953Z" fill="#006CBD"/>
<path d="M170.831 41.3939C170.698 41.5273 170.598 43.2612 170.598 45.2619V48.8964L173.165 48.7964C175.399 48.6963 175.766 48.5963 175.866 48.0628C176.033 47.2625 175.399 46.8624 173.865 46.8624H172.632L172.532 44.0948C172.432 41.6273 172.365 41.3606 171.765 41.2606C171.365 41.1939 170.964 41.2606 170.831 41.3939Z" fill="#006CBD"/>
</svg>
